<?xml version="1.0" encoding="utf-8"?>
<!-- Generator: Adobe Illustrator 21.0.0, SVG Export Plug-In . SVG Version: 6.00 Build 0)  -->
<svg version="1.1" id="Layer_2" xmlns="http://www.w3.org/2000/svg" xmlns:xlink="http://www.w3.org/1999/xlink" x="0px" y="0px"
	 viewBox="0 0 612 792" style="enable-background:new 0 0 612 792;" xml:space="preserve">
<style type="text/css">
	.st0{fill:none;stroke:#000000;stroke-width:5;stroke-miterlimit:10;}
	.st1{fill:#F1F2F2;}
	.st2{fill:#B75E91;}
	.st3{fill:#A281A5;}
	.st4{fill:#82A893;}
	.st5{fill:#664B3D;}
	.st6{fill:#FF66B6;}
	.st7{fill:#FF576B;}
	.st8{fill:#F4A687;}
	.st9{fill:#E7C0A5;}
	.st10{fill:#231F20;}
	.st11{fill:#603E23;}
	.st12{fill:#44683E;}
	.st13{fill:#68876A;}
</style>
<g id="XMLID_1_">
	<g>
		<polygon points="345,638.1 345,665 334,745 337.3,771.1 340,792 303,792 288,768 288,705 295.8,660 300,636 294,573 300,567 
			342.4,567 345,573 		"/>
		<polygon class="st1" points="389.3,256.7 389.1,258.4 380,257.3 371.7,254.3 364.3,252.5 366.7,249 371.7,245 382.3,241.7 
			380,246.8 380,249.8 385.3,254.3 		"/>
		<polygon class="st1" points="389.3,256.7 396.3,256.7 401,250.3 402.7,244.5 399.5,241.7 411,246.8 419.3,252.5 418.3,252.9 
			410.3,255.8 394.7,259 389.1,258.4 		"/>
		<polygon class="st1" points="269.3,250.3 269.9,253 263.7,254.3 251,252.5 241,244.5 242.3,241.7 258.3,235.7 254.7,241.7 
			259.7,249.8 		"/>
		<polygon class="st1" points="288,244.5 290,249.4 288,249.4 285.3,249.4 279.3,251 269.9,253 269.3,250.3 274.3,246 274.3,240 
			273,235.7 276.7,235.7 		"/>
		<polygon class="st2" points="374,384 346,380.5 323,380.5 297,380.5 273,384 306,360 323.5,365 340,365 358,375 		"/>
		<polygon class="st2" points="374,384 346,401 319,401 294,396 273,384 297,380.5 323,380.5 346,380.5 		"/>
		<polygon class="st3" points="203,542.9 295.8,660 128.7,660 127,655.5 165.2,599 		"/>
		<polygon class="st4" points="402.7,244.5 401,250.3 396.3,256.7 389.3,256.7 385.3,254.3 380,249.8 380,246.8 382.3,241.7 
			399.5,241.7 		"/>
		<polygon class="st4" points="274.3,240 274.3,246 269.3,250.3 259.7,249.8 254.7,241.7 258.3,235.7 273,235.7 		"/>
		<polygon class="st5" points="423,103.8 431.5,137.5 402.4,103.3 		"/>
		<polygon class="st5" points="478.7,192.9 431.5,137.5 423,103.8 429.5,104 449,132 		"/>
		<polygon class="st5" points="419.3,89.5 429.5,104 423,103.8 		"/>
		<polygon class="st5" points="412,79 419.3,89.5 391.9,91 374.4,70.4 		"/>
		<polygon class="st5" points="328.1,101.4 328,104 315.6,106.3 315.3,104 315.3,101.1 		"/>
		<polygon class="st5" points="315.3,104 315.6,106.3 306,108 295,100.6 315.3,101.1 		"/>
		<polygon class="st5" points="402.4,103.3 328.1,101.4 315.3,101.1 295,100.6 289,96.5 391.9,91 		"/>
		<polygon class="st5" points="306,65.7 280.1,90.5 260,77 		"/>
		<polygon class="st5" points="273,97.4 270.3,100 250.8,99.5 251.1,98.6 		"/>
		<polygon class="st5" points="289,96.5 273,97.4 280.1,90.5 		"/>
		<polygon class="st5" points="306,108 255.9,113.8 270.3,100 295,100.6 		"/>
		<polygon class="st5" points="260,77 251.1,98.6 240,99.2 		"/>
		<polygon class="st5" points="255.9,113.8 237.6,131.3 244.3,115.1 		"/>
		<polygon class="st5" points="270.3,100 255.9,113.8 244.3,115.1 250.8,99.5 		"/>
		<polygon class="st5" points="250.8,99.5 244.3,115.1 223.5,117.5 240,99.2 		"/>
		<polygon class="st5" points="187,158 200.4,167.1 178.6,188 		"/>
		<polygon class="st5" points="237.6,131.3 218,179 200.4,167.1 		"/>
		<polygon class="st5" points="188.7,330 188.7,330 150.6,384.3 136.9,337.4 157.4,264 185.8,324 		"/>
		<polygon class="st3" points="165.2,599 105.9,448 105.9,448 136.9,459.4 203,542.9 		"/>
		<polygon class="st6" points="370.5,579.8 416.5,640.9 399.5,703.7 357.8,653.5 		"/>
		<polygon class="st7" points="416.5,640.9 480.9,726.5 473,792 399.5,703.7 		"/>
		<polygon class="st8" points="370.5,579.8 357.8,653.5 345,638.1 345,573 342.4,567 350,552.4 		"/>
		<polygon class="st6" points="480.9,726.5 530.1,792 473,792 		"/>
		<polygon class="st6" points="608.3,765.1 529.4,638.6 577.9,559.7 581,567 		"/>
		<polygon class="st3" points="488.4,363.9 517.2,423.2 497.5,587.6 451,513 407.8,443.8 407.8,443.8 		"/>
		<polygon class="st6" points="97.2,576.3 93,638.1 62.1,615.5 66,583 69.8,567 71,562 76.4,539 79.4,529.2 		"/>
		<polygon class="st5" points="188.7,330 217.1,390 177,474.1 		"/>
		<polygon class="st7" points="150.6,384.3 177,474.1 136.9,459.4 105.9,448 105.9,448 		"/>
		<polygon class="st7" points="131,666 178.4,792 35,792 123.6,660.6 		"/>
		<polygon class="st7" points="357.8,653.5 337.3,771.1 334,745 345,665 345,638.1 		"/>
		<polygon class="st3" points="407.8,443.8 451,513 416.5,640.9 370.5,579.8 391.3,460.1 391.3,460.1 		"/>
		<polygon class="st4" points="0,513 97,480 83.5,516 59,524 47.3,502 28,533 0,530 		"/>
		<polygon class="st9" points="450.2,194.2 454,214 441,214 424,197 		"/>
		<polygon class="st9" points="450.2,194.2 424,197 390.2,194.2 397,147.9 		"/>
		<polygon class="st9" points="447,178 450.2,194.2 397,147.9 399,134.1 419,152 440.2,171.7 440.2,171.7 		"/>
		<polygon class="st9" points="372,110 399,134.1 397,147.9 350,107 		"/>
		<polygon class="st9" points="397,147.9 390.2,194.2 328,104 350,107 		"/>
		<polygon class="st9" points="390.2,194.2 375,193 356,194 346,207 347.1,214 348,220 334,224.2 323.9,159.4 		"/>
		<polygon class="st9" points="328,104 390.2,194.2 323.9,159.4 315.6,106.3 		"/>
		<polygon class="st9" points="249,148 240,188 213,208 202.4,207.3 218,179 		"/>
		<polygon class="st9" points="281.9,137.2 240,188 249,148 269.1,130.5 		"/>
		<polygon class="st9" points="306,108 281.9,137.2 269.1,130.5 280,121 		"/>
		<polygon class="st9" points="315.6,106.3 323.9,159.4 281.9,137.2 306,108 		"/>
		<polygon class="st9" points="323.9,159.4 334,224.2 328,226 319,226 306,217 311,201 279,184 240,188 281.9,137.2 		"/>
		<path class="st9" d="M380.7,259l3.3,3l6.3,2l15.3-2.3l13.7-6l6-3.2l-7.3-5.8l-9.3-8.1l-15-3l-8,2.7l-3.3,3.3l-10.7,3.3l-5,4
			l-2.3,3.5l7.3,1.8l8.3,3L380.7,259z M454,226v39l-12,10l-10,10h-52l-22-10l-13-35l7-14l13-6h72L454,226z"/>
		<path class="st9" d="M306,232l-11,34l-22,9l-61-4l-10-11l-6-34l6-12h71l15,5L306,232z M290,249.4l-2-4.9l-11.3-8.8L273,234
			l-12.7-3l-9.3,2l-5.7,2.7l-8.3,6l1.3,5.1L251,257l12.7,2l12-4.7l3.7-3.3l6-1.6h2.7H290z"/>
		<polygon class="st9" points="234.2,292 205.5,298.8 202,275 217.5,276.2 		"/>
		<polygon class="st9" points="258.3,286.2 234.2,292 217.5,276.2 280,281 		"/>
		<polygon class="st9" points="258.3,286.2 262.2,318.5 234.2,292 		"/>
		<polygon class="st9" points="386.4,304.7 365.8,283.2 373,286.5 454,286.5 		"/>
		<polygon class="st9" points="365.8,283.2 386.4,304.7 358,312.4 358,305 352.5,288.6 348,275 		"/>
		<polygon class="st9" points="328,240 312.6,278.8 299,271 318,240 		"/>
		<polygon class="st9" points="348,275 352.5,288.6 340.5,294.9 312.6,278.8 328,240 333,240 		"/>
		<polygon class="st9" points="352.5,288.6 358,305 340.5,294.9 		"/>
		<polygon class="st9" points="358,312.4 358,326.5 350,327.6 350,324 340,318 334,324 333,330 323,330 306,330 303,323 297,318 
			340.5,294.9 358,305 		"/>
		<polygon class="st9" points="312.6,278.8 340.5,294.9 297,318 		"/>
		<polygon class="st9" points="312.6,278.8 297,318 288,323 299,271 		"/>
		<polygon class="st9" points="323,330 291.7,346.4 262.2,318.5 258.3,286.2 280,281 299,271 288,323 306,330 		"/>
		<polygon class="st9" points="291.7,346.4 267.1,359.3 262.2,318.5 		"/>
		<polygon class="st9" points="267.1,359.3 269.8,381.9 249.7,368.4 		"/>
		<polygon class="st9" points="377.5,462.8 371.3,480 363,503 368,518 350,552.4 342.4,567 300,567 279.9,516 268,480 253,448 
			280,466.8 299,480 323.5,480 338,480 		"/>
		<polygon class="st9" points="306,360 273,384 269.8,381.9 267.1,359.3 291.7,346.4 		"/>
		<polygon class="st9" points="262.2,318.5 267.1,359.3 249.7,368.4 212.2,343.4 205.5,298.8 234.2,292 		"/>
		<polygon class="st9" points="249.7,368.4 220,384 218.6,386.9 212.2,343.4 		"/>
		<polygon class="st9" points="269.8,381.9 280,466.8 253,448 220,396 218.6,386.9 220,384 249.7,368.4 		"/>
		<polygon class="st9" points="280,466.8 269.8,381.9 273,384 323.5,480 299,480 		"/>
		<polygon class="st9" points="374.2,384.1 323.5,480 273,384 294,396 319,401 346,401 374,384 		"/>
		<polygon class="st9" points="385.5,362.8 422.4,411.6 384,460 377.5,462.8 338,480 323.5,480 374.2,384.1 		"/>
		<polygon class="st9" points="405.5,324.9 386.4,304.7 454,286.5 438.8,359.7 		"/>
		<polygon class="st9" points="405.5,324.9 438.8,359.7 430,402 422.4,411.6 385.5,362.8 		"/>
		<polygon class="st9" points="405.5,324.9 385.5,362.8 358,326.5 358,312.4 386.4,304.7 		"/>
		<polygon class="st9" points="385.5,362.8 374.2,384.1 374,384 358,375 340,365 323.5,365 306,360 291.7,346.4 323,330 333,330 
			350,330 350,327.6 358,326.5 		"/>
		<path class="st10" d="M358,275l22,10h52l10-10l12-10v-39l-17-6h-72l-13,6l-7,14L358,275z M212,271l61,4l22-9l11-34l-18-13l-15-5
			h-71l-6,12l6,34L212,271z M365.8,283.2L348,275l-15-35h-5h-10l-19,31l-19,10l-62.5-4.8L202,275l-9-8l-6-27h-10v-26l20-7l5.4,0.3
			L202,208h11l43-1l45,7l5,3l13,9h9l6-1.8l14-4.2l-0.9-6H441h13l25,6l-6,26l-19,40.5h-81L365.8,283.2z"/>
		<polygon class="st11" points="207,327 218.4,387.4 217.1,390 188.7,330 188.7,330 185.8,324 157.4,264 164.1,240 177,240 187,240 
			193,267 202,275 		"/>
		<polygon class="st11" points="218,179 202.4,207.3 197,207 177,214 177,240 164.1,240 178.6,188 178.6,188 200.4,167.1 		"/>
		<polygon class="st11" points="478.7,192.9 488,212 454,214 450.2,194.2 447,178 440.2,171.7 440.2,171.7 431.5,137.5 		"/>
		<polygon class="st11" points="419.3,89.5 423,103.8 402.4,103.3 391.9,91 		"/>
		<polygon class="st11" points="431.5,137.5 440.2,171.7 419,152 399,134.1 372,110 350,107 328,104 328.1,101.4 402.4,103.3 		"/>
		<polygon class="st11" points="306,108 280,121 269.1,130.5 249,148 218,179 237.6,131.3 255.9,113.8 		"/>
		<polygon class="st11" points="289,96.5 295,100.6 270.3,100 273,97.4 		"/>
		<polygon class="st11" points="280.1,90.5 273,97.4 251.1,98.6 260,77 		"/>
		<polygon class="st11" points="391.9,91 289,96.5 280.1,90.5 306,65.7 329,60 374.4,70.4 		"/>
		<polygon class="st11" points="244.3,115.1 237.6,131.3 200.4,167.1 187,158 223.5,117.5 		"/>
		<polygon class="st10" points="441,214 347.1,214 346,207 356,194 375,193 390.2,194.2 424,197 		"/>
		<polygon class="st10" points="311,201 306,217 301,214 256,207 213,208 240,188 279,184 		"/>
		<polygon class="st10" points="380,257.3 389.1,258.4 394.7,259 410.3,255.8 418.3,252.9 419.3,255.7 405.7,261.7 390.3,264 
			384,262 380.7,259 		"/>
		<polygon class="st10" points="425.3,252.5 419.3,255.7 418.3,252.9 419.3,252.5 411,246.8 399.5,241.7 382.3,241.7 385.7,238.3 
			393.7,235.7 408.7,238.7 418,246.8 		"/>
		<polygon class="st10" points="273,234 276.7,235.7 273,235.7 258.3,235.7 242.3,241.7 241,244.5 251,252.5 263.7,254.3 
			274.3,252.5 279.3,251 275.7,254.3 263.7,259 251,257 238.3,246.8 237,241.7 245.3,235.7 251,233 260.3,231 		"/>
		<polygon class="st10" points="350,324 350,327.6 333,330 334,324 340,318 		"/>
		<polygon class="st10" points="303,323 306,330 288,323 297,318 		"/>
		<polygon class="st10" points="83.5,516 79,528 76.4,539 71,539 71,562 69.8,567 45,562 11,599 20,555 0,543 0,530 28,533 
			47.3,502 59,524 		"/>
		<polygon class="st3" points="97,480 105.9,448 97.2,576.3 79.4,529.2 83.5,516 		"/>
		<polygon class="st11" points="188.7,330 177,474.1 150.6,384.3 		"/>
		<polygon class="st8" points="258.2,461.1 203,542.9 136.9,459.4 177,474.1 217.1,390 220,396 253,448 		"/>
		<polygon class="st11" points="136.9,337.4 150.6,384.3 105.9,448 		"/>
		<polygon class="st11" points="488.4,363.9 407.8,443.8 407.8,443.8 391.3,460.1 391.3,460.1 371.3,480 377.5,462.8 384,460 
			422.4,411.6 430,402 463.3,312.4 		"/>
		<polygon class="st6" points="303,792 265,792 178.4,792 131,666 		"/>
		<polygon class="st6" points="399.5,703.7 473,792 340,792 337.3,771.1 357.8,653.5 		"/>
		<polygon class="st5" points="488,212 491.8,235.7 463.3,312.4 430,402 440,361 454,286.5 473,246 479,220 454,214 		"/>
		<polygon class="st12" points="565.9,443 554,480 562.4,516 517.2,423.2 520.5,396 529,429 554,442 		"/>
		<polygon class="st6" points="497.5,587.6 529.4,638.6 482.2,715.3 		"/>
		<polygon class="st3" points="122.8,660 123.6,660.6 35,792 35,783 59,727 59,684 59,660 		"/>
		<polygon class="st6" points="279.9,516 300,567 294,573 300,636 295.8,660 203,542.9 258.2,461.1 		"/>
		<polygon class="st6" points="391.3,460.1 370.5,579.8 350,552.4 368,518 363,503 371.3,480 		"/>
		<polygon class="st4" points="581,567 577.9,559.7 565.9,531 562.4,516 562.4,516 554,480 565.9,443 589,448 612,443.8 612,577 		
			"/>
		<polygon class="st3" points="530.1,792 480.9,726.5 482.2,715.3 529.4,638.6 608.3,765.1 612,792 		"/>
		<polygon class="st8" points="513,367 520.5,396 517.2,423.2 488.4,363.9 509.2,343.3 		"/>
		<polygon class="st8" points="288,768 303,792 131,666 128.7,660 295.8,660 288,705 		"/>
		<polygon class="st8" points="127,655.5 124,660 122.8,660 93,638.1 97.2,576.3 		"/>
		<polygon class="st8" points="451,513 497.5,587.6 482.2,715.3 480.9,726.5 416.5,640.9 		"/>
		<polygon class="st7" points="128.7,660 131,666 123.6,660.6 124,660 		"/>
		<polygon class="st5" points="491.8,235.7 509.2,343.3 488.4,363.9 463.3,312.4 		"/>
		<polygon class="st7" points="565.9,531 577.9,559.7 529.4,638.6 497.5,587.6 517.2,423.2 562.4,516 562.4,516 		"/>
		<polygon class="st7" points="93,638.1 122.8,660 59,660 59,641 62.1,615.5 		"/>
		<polygon class="st7" points="105.9,448 165.2,599 127,655.5 97.2,576.3 105.9,448 		"/>
	</g>
	<g>
		<polyline class="st0" points="0,543 0,792 35,792 123.6,660.6 124,660 127,655.5 165.2,599 203,542.9 258.2,461.1 		"/>
		<polyline class="st0" points="97,480 0,513 0,530 		"/>
		<line class="st0" x1="178.6" y1="188" x2="164.1" y2="240"/>
		<polyline class="st0" points="488,212 478.7,192.9 449,132 429.5,104 419.3,89.5 412,79 374.4,70.4 329,60 306,65.7 260,77 
			240,99.2 223.5,117.5 187,158 178.6,188 		"/>
		<polyline class="st0" points="565.9,443 589,448 612,443.8 612,577 581,567 		"/>
		<polyline class="st0" points="430,402 440,361 454,286.5 		"/>
		<polyline class="st0" points="202,275 207,327 218.4,387.4 220,396 		"/>
		<polyline class="st0" points="306,217 311,201 279,184 240,188 213,208 202,208 202.4,207.3 218,179 249,148 269.1,130.5 280,121 
			306,108 315.6,106.3 328,104 350,107 372,110 399,134.1 419,152 440.2,171.7 		"/>
		<polyline class="st0" points="441,214 424,197 390.2,194.2 375,193 356,194 346,207 347.1,214 		"/>
		<polyline class="st0" points="440.2,171.7 447,178 450.2,194.2 454,214 		"/>
		<polygon class="st0" points="273,384 294,396 319,401 346,401 374,384 358,375 340,365 323.5,365 306,360 		"/>
		<line class="st0" x1="299" y1="271" x2="288" y2="323"/>
		<polyline class="st0" points="306,330 323,330 333,330 350,327.6 358,326.5 358,312.4 358,305 352.5,288.6 348,275 		"/>
		<polyline class="st0" points="454,214 441,214 347.1,214 348,220 334,224.2 328,226 319,226 306,217 301,214 256,207 213,208 
			202.4,207.3 197,207 177,214 177,240 		"/>
		<polyline class="st0" points="202,275 217.5,276.2 280,281 299,271 318,240 328,240 333,240 348,275 365.8,283.2 373,286.5 
			454,286.5 		"/>
		<polygon class="st0" points="196,226 202,260 212,271 273,275 295,266 306,232 288,219 273,214 202,214 		"/>
		<polyline class="st0" points="273,384 297,380.5 323,380.5 346,380.5 374,384 		"/>
		<polygon class="st0" points="352,226 365,220 437,220 454,226 454,265 442,275 432,285 380,285 358,275 345,240 		"/>
		<polyline class="st0" points="377.5,462.8 338,480 323.5,480 299,480 280,466.8 253,448 268,480 279.9,516 		"/>
		<polyline class="st0" points="105.9,448 97,480 83.5,516 79,528 76.4,539 71,562 		"/>
		<polyline class="st0" points="300,567 279.9,516 258.2,461.1 253,448 220,396 218.6,386.9 212.2,343.4 205.5,298.8 202,275 
			193,267 187,240 177,240 164.1,240 157.4,264 136.9,337.4 105.9,448 		"/>
		<polyline class="st0" points="69.8,567 66,583 62.1,615.5 59,641 59,660 59,684 59,727 35,783 35,792 178.4,792 265,792 303,792 
					"/>
		<polyline class="st0" points="342.4,567 350,552.4 368,518 363,503 371.3,480 377.5,462.8 384,460 422.4,411.6 430,402 
			438.8,359.7 454,286.5 473,246 479,220 454,214 488,212 491.8,235.7 509.2,343.3 513,367 520.5,396 529,429 554,442 565.9,443 
			554,480 562.4,516 		"/>
		<polyline class="st0" points="562.4,516 565.9,531 577.9,559.7 581,567 608.3,765.1 612,792 530.1,792 473,792 340,792 		"/>
		<polygon class="st0" points="303,792 340,792 337.3,771.1 334,745 345,665 345,638.1 345,573 342.4,567 300,567 294,573 300,636 
			295.8,660 288,705 288,768 		"/>
		<polygon class="st0" points="0,543 20,555 11,599 45,562 69.8,567 71,562 71,539 76.4,539 79.4,529.2 83.5,516 59,524 47.3,502 
			28,533 0,530 		"/>
		<polygon class="st0" points="288,323 297,318 303,323 306,330 		"/>
		<polygon class="st0" points="333,330 334,324 340,318 350,324 350,327.6 350,330 		"/>
		<polyline class="st0" points="263.7,254.3 274.3,252.5 279.3,251 285.3,249.4 288,249.4 290,249.4 288,244.5 276.7,235.7 		"/>
		<polyline class="st0" points="382.3,241.7 371.7,245 366.7,249 364.3,252.5 371.7,254.3 380,257.3 		"/>
		<polyline class="st0" points="258.3,235.7 242.3,241.7 241,244.5 251,252.5 263.7,254.3 269.9,253 279.3,251 275.7,254.3 
			263.7,259 251,257 238.3,246.8 237,241.7 245.3,235.7 251,233 260.3,231 273,234 276.7,235.7 273,235.7 		"/>
		<polyline class="st0" points="382.3,241.7 385.7,238.3 393.7,235.7 408.7,238.7 418,246.8 425.3,252.5 419.3,255.7 405.7,261.7 
			390.3,264 384,262 380.7,259 380,257.3 389.1,258.4 394.7,259 410.3,255.8 418.3,252.9 419.3,252.5 411,246.8 399.5,241.7 		"/>
		<polygon class="st0" points="258.3,235.7 254.7,241.7 259.7,249.8 269.3,250.3 274.3,246 274.3,240 273,235.7 		"/>
		<polygon class="st0" points="382.3,241.7 380,246.8 380,249.8 385.3,254.3 389.3,256.7 396.3,256.7 401,250.3 402.7,244.5 
			399.5,241.7 		"/>
		<polyline class="st0" points="188.7,330 217.1,390 220,396 		"/>
		<polyline class="st0" points="157.4,264 185.8,324 188.7,330 188.7,330 177,474.1 136.9,459.4 105.9,448 105.9,448 150.6,384.3 
			188.7,330 		"/>
		<polyline class="st0" points="303,792 131,666 123.6,660.6 122.8,660 93,638.1 62.1,615.5 		"/>
		<polyline class="st0" points="79,528 79.4,529.2 97.2,576.3 127,655.5 128.7,660 131,666 178.4,792 		"/>
		<polyline class="st0" points="105.9,448 105.9,448 165.2,599 		"/>
		<polyline class="st0" points="93,638.1 97.2,576.3 105.9,448 105.9,448 		"/>
		<polyline class="st0" points="136.9,459.4 203,542.9 295.8,660 128.7,660 124,660 122.8,660 59,660 		"/>
		<polyline class="st0" points="491.8,235.7 463.3,312.4 430,402 		"/>
		<polyline class="st0" points="407.8,443.8 488.4,363.9 509.2,343.3 		"/>
		<line class="st0" x1="391.3" y1="460.1" x2="407.8" y2="443.8"/>
		<line class="st0" x1="371.3" y1="480" x2="391.3" y2="460.1"/>
		<polyline class="st0" points="463.3,312.4 488.4,363.9 517.2,423.2 562.4,516 562.4,516 		"/>
		<polyline class="st0" points="407.8,443.8 407.8,443.8 451,513 497.5,587.6 529.4,638.6 608.3,765.1 612,771.1 		"/>
		<polyline class="st0" points="577.9,559.7 529.4,638.6 482.2,715.3 		"/>
		<polyline class="st0" points="391.3,460.1 391.3,460.1 370.5,579.8 357.8,653.5 337.3,771.1 		"/>
		<polyline class="st0" points="350,552.4 370.5,579.8 416.5,640.9 480.9,726.5 530.1,792 		"/>
		<polyline class="st0" points="451,513 416.5,640.9 399.5,703.7 399.5,703.8 		"/>
		<polyline class="st0" points="345,638.1 357.8,653.5 399.5,703.7 473,792 480.9,726.5 482.2,715.3 497.5,587.6 517.2,423.2 
			520.5,396 		"/>
		<polyline class="st0" points="205.5,298.8 234.2,292 258.3,286.2 280,281 		"/>
		<polyline class="st0" points="212,271 217.5,276.2 234.2,292 262.2,318.5 291.7,346.4 306,360 		"/>
		<polyline class="st0" points="258.2,285 258.3,286.2 262.2,318.5 267.1,359.3 269.8,381.9 280,466.8 		"/>
		<polyline class="st0" points="454,286.5 386.4,304.7 358,312.4 		"/>
		<polyline class="st0" points="358,275 365.8,283.2 386.4,304.7 405.5,324.9 438.8,359.7 440,361 		"/>
		<polyline class="st0" points="323,330 291.7,346.4 267.1,359.3 249.7,368.4 220,384 218.6,386.9 218.4,387.4 217.1,390 177,474.1 
			150.6,384.3 136.9,337.4 		"/>
		<polyline class="st0" points="299,271 312.6,278.8 340.5,294.9 358,305 		"/>
		<polyline class="st0" points="328,240 312.6,278.8 297,318 340.5,294.9 352.5,288.6 		"/>
		<polyline class="st0" points="406,324 405.5,324.9 385.5,362.8 374.2,384.1 323.5,480 273,384 269.8,381.9 249.7,368.4 
			212.2,343.4 212,343.3 		"/>
		<polyline class="st0" points="358,326.5 385.5,362.8 422.4,411.6 		"/>
		<polyline class="st0" points="249,148 240,188 281.9,137.2 306,108 		"/>
		<polyline class="st0" points="269.1,130.5 281.9,137.2 323.9,159.4 390.2,194.2 328,104 		"/>
		<polyline class="st0" points="315.3,104 315.6,106.3 323.9,159.4 334,224.2 		"/>
		<polyline class="st0" points="399,134.1 397,147.9 390.2,194.2 		"/>
		<polyline class="st0" points="350,107 397,147.9 450.2,194.2 424,197 		"/>
		<polyline class="st0" points="223.5,117.5 244.3,115.1 255.9,113.8 306,108 295,100.6 289,96.5 280.1,90.5 260,77 251.1,98.6 
			250.8,99.5 244.3,115.1 237.6,131.3 218,179 200.4,167.1 187,158 		"/>
		<polyline class="st0" points="306,65.7 280.1,90.5 273,97.4 270.3,100 255.9,113.8 237.6,131.3 200.4,167.1 178.6,188 178.6,188 
					"/>
		<polyline class="st0" points="482.2,197 478.7,192.9 431.5,137.5 402.4,103.3 391.9,91 374.4,70.4 		"/>
		<polyline class="st0" points="429.5,104 423,103.8 402.4,103.3 328.1,101.4 315.3,101.1 295,100.6 270.3,100 250.8,99.5 240,99.2 
			251.1,98.6 273,97.4 289,96.5 391.9,91 419.3,89.5 423,103.8 431.5,137.5 440.2,171.7 440.2,171.7 		"/>
	</g>
</g>
<g id="XMLID_2_">
	<g>
		<polygon class="st12" points="612,607.4 612,792 581,567 612,577 		"/>
	</g>
	<g>
		<polygon class="st0" points="612,607.4 612,792 581,567 612,577 		"/>
	</g>
</g>
<g id="XMLID_3_">
	<g>
		<polygon class="st13" points="69.8,567 59,641 59,727 35,783 35,792 0,792 0,543 20,555 11,599 45,562 		"/>
	</g>
	<g>
		<polygon class="st0" points="35,783 59,727 59,641 69.8,567 45,562 11,599 20,555 0,543 0,792 35,792 		"/>
	</g>
</g>
</svg>
