<?xml version="1.0" encoding="utf-8"?>
<!-- Generator: Adobe Illustrator 21.0.0, SVG Export Plug-In . SVG Version: 6.00 Build 0)  -->
<svg version="1.1" id="Layer_1" xmlns="http://www.w3.org/2000/svg" xmlns:xlink="http://www.w3.org/1999/xlink" x="0px" y="0px"
	 viewBox="0 0 612 792" style="enable-background:new 0 0 612 792;" xml:space="preserve">
<style type="text/css">
	.st0{opacity:0.8;fill:#80D2FF;}
	.st1{fill:#8FF4FF;}
	.st2{fill:#9BEDFC;}
	.st3{fill:#A8E6FA;}
	.st4{fill:#B4DFF7;}
	.st5{fill:#C1D8F4;}
	.st6{fill:#CDD2F2;}
	.st7{fill:#DACBEF;}
	.st8{fill:#E6C4EC;}
	.st9{fill:#F3BDEA;}
	.st10{fill:#FFB6E7;}
	.st11{opacity:0.2;}
	.st12{opacity:0.4;}
	.st13{opacity:0.6;}
	.st14{opacity:0.8;}
</style>
<polygon class="st0" points="474,329.5 347.9,288.4 296,182.6 234.3,298.9 111.1,332.9 206,390 169,521 303.5,448.4 417.6,518.4 
	391.1,382.9 "/>
<g>
	<polygon class="st1" points="436,332.9 337.5,316.8 296,225 249.2,319.9 145.7,331.2 234.5,375.7 193.2,484 296,414.7 391.9,489.4 
		348.7,382.5 	"/>
	<polygon class="st2" points="419.9,325 344.3,375.9 390.6,472.3 298.7,408.3 210.4,476.5 241.5,375 157.2,340.6 250.7,324 
		286.6,237.7 329.9,318.1 	"/>
	<polygon class="st3" points="403.8,317.1 339.9,369.3 389.3,455.3 301.4,401.9 227.6,469 248.5,374.3 168.7,350.1 252.2,328.2 
		277.2,250.3 322.2,319.5 	"/>
	<polygon class="st4" points="387.7,309.2 335.5,362.7 388,438.3 304.2,395.5 244.8,461.4 255.4,373.6 180.2,359.5 253.6,332.3 
		267.8,263 314.5,320.8 	"/>
	<polygon class="st5" points="371.5,301.3 331.1,356.1 386.7,421.3 306.9,389.1 262.1,453.9 262.4,373 191.7,368.9 255.1,336.4 
		258.5,275.6 306.8,322.1 	"/>
	<polygon class="st6" points="355.4,293.5 326.7,349.5 385.4,404.3 309.7,382.7 279.3,446.3 269.4,372.3 203.2,378.3 256.6,340.6 
		249.1,288.3 299.1,323.5 	"/>
	<polygon class="st7" points="339.3,285.6 322.3,342.9 384.2,387.3 312.4,376.4 296.5,438.8 276.4,371.6 214.7,387.8 258.1,344.7 
		239.7,300.9 291.4,324.8 	"/>
	<polygon class="st8" points="323.2,277.7 317.9,336.3 382.9,370.3 315.2,370 313.7,431.3 283.4,370.9 226.3,397.2 259.5,348.9 
		230.3,313.6 283.7,326.1 	"/>
	<polygon class="st9" points="307.1,269.8 313.5,329.7 381.6,353.3 317.9,363.6 331,423.7 290.4,370.2 237.8,406.6 261,353 
		221,326.2 276,327.5 	"/>
	<polygon class="st10" points="291,261.9 309.1,323 380.3,336.3 320.6,357.2 348.2,416.2 297.4,369.6 249.3,416 262.5,357.1 
		211.6,338.9 268.3,328.8 	"/>
</g>
<polygon class="st11" points="290.8,339.1 296,225 337.5,316.8 "/>
<polygon class="st12" points="290.8,339.1 436,332.9 348.7,382.5 "/>
<polygon class="st13" points="290.8,339.1 296,414.7 391.9,489.4 "/>
<polygon class="st14" points="290.8,339.1 193.2,484 234.5,375.7 "/>
<polygon points="290.8,339.1 145.7,331.2 249.2,319.9 "/>
</svg>
